<svg id="Layer_1" data-name="Layer 1" xmlns="http://www.w3.org/2000/svg" viewBox="0 0 500 500"><defs><style>.cls-1{fill:#e6e6e6;}.cls-2{fill:#fff;}</style></defs><title>store_image_placeholder</title><rect class="cls-1" width="500" height="500"/><rect class="cls-2" x="100" y="228" width="300" height="150" rx="12.68"/><path class="cls-1" d="M362,375H305V285a10,10,0,0,1,10-10h37a10,10,0,0,1,10,10Z" transform="translate(0 3)"/><rect class="cls-1" x="126" y="278" width="150" height="60" rx="10"/><path class="cls-2" d="M90,232.5c-5.21,0-8.33-3.73-9.72-6a19.3,19.3,0,0,1-.9-18.28l35.42-73.18c2.26-4.67,6.33-7.58,10.61-7.58H374.59c4.28,0,8.35,2.91,10.62,7.58l35.41,73.18a19.3,19.3,0,0,1-.9,18.28c-1.39,2.23-4.51,6-9.72,6Z" transform="translate(0 3)"/><path class="cls-1" d="M374.59,130c3.32,0,6.52,2.37,8.36,6.17l35.42,73.17a16.77,16.77,0,0,1-.77,15.88C416.48,227,414,230,410,230H90c-4,0-6.48-3-7.6-4.78a16.77,16.77,0,0,1-.77-15.88l35.42-73.17c1.84-3.8,5-6.17,8.36-6.17H374.59m0-5H125.41c-5.28,0-10.17,3.42-12.87,9L77.13,207.17C71.19,219.44,78.38,235,90,235H410c11.62,0,18.81-15.56,12.87-27.83L387.46,134c-2.7-5.58-7.59-9-12.87-9Z" transform="translate(0 3)"/><rect class="cls-2" x="77.5" y="222.5" width="345" height="35" rx="9.1"/><path class="cls-1" d="M413.4,222a6.61,6.61,0,0,1,6.6,6.6v16.8a6.61,6.61,0,0,1-6.6,6.6H86.6a6.61,6.61,0,0,1-6.6-6.6V228.6a6.61,6.61,0,0,1,6.6-6.6H413.4m0-5H86.6A11.6,11.6,0,0,0,75,228.6v16.8A11.6,11.6,0,0,0,86.6,257H413.4A11.6,11.6,0,0,0,425,245.4V228.6A11.6,11.6,0,0,0,413.4,217Z" transform="translate(0 3)"/><rect class="cls-2" x="127.5" y="160.5" width="245" height="45" rx="13.27"/><path class="cls-1" d="M359.23,160A10.78,10.78,0,0,1,370,170.77v18.46A10.78,10.78,0,0,1,359.23,200H140.77A10.78,10.78,0,0,1,130,189.23V170.77A10.78,10.78,0,0,1,140.77,160H359.23m0-5H140.77A15.77,15.77,0,0,0,125,170.77v18.46A15.77,15.77,0,0,0,140.77,205H359.23A15.77,15.77,0,0,0,375,189.23V170.77A15.77,15.77,0,0,0,359.23,155Z" transform="translate(0 3)"/></svg>